<svg width="61" height="60" viewBox="0 0 61 60" fill="none" xmlns="http://www.w3.org/2000/svg">
<path d="M0.429993 29.93C0.429993 46.46 13.83 59.86 30.36 59.86C30.76 59.86 31.16 59.86 31.56 59.83V48.48H30.36C20.11 48.48 11.81 40.17 11.81 29.92C11.81 19.67 20.11 11.37 30.36 11.37H31.56V0.03C31.16 0.02 30.76 0 30.36 0C13.83 0 0.429993 13.4 0.429993 29.93Z" fill="#FC5055"/>
<path d="M36.34 0.599976V16.16H30.36C22.75 16.16 16.59 22.32 16.59 29.93C16.59 37.54 22.76 43.7 30.36 43.7H36.34V59.26C50.01 56.49 60.28 44.41 60.28 29.93C60.28 15.45 50.01 3.36998 36.34 0.599976Z" fill="#003790"/>
</svg>
